<svg width="544" height="439" viewBox="0 0 544 439" fill="none" xmlns="http://www.w3.org/2000/svg">
<path d="M145.642 167.681C145.642 217.861 110.282 258.421 51.2616 258.421H1.08159V257.381C8.36159 254.521 10.1816 254.521 10.1816 239.961V95.6608C10.1816 81.1008 8.36159 81.1008 1.08159 78.2408V77.2008H51.2616C108.722 77.2008 145.642 117.761 145.642 167.681ZM30.7216 256.601H48.6616C95.9816 256.601 125.102 216.821 125.102 167.681C125.102 118.801 93.3816 78.7608 48.6616 78.7608H30.7216V256.601Z" fill="black"/>
<path d="M248.132 138V137.28C253.172 135.3 254.252 135.3 254.252 125.22V25.32C254.252 15.24 253.172 15.24 248.132 13.26V12.54H294.212C315.092 12.54 341.012 22.8 341.012 48.72C341.012 75.9 314.912 84.9 294.212 84.9H268.472V125.22C268.472 135.3 269.732 135.3 274.772 137.28V138H248.132ZM268.472 13.8V83.64H289.892C314.912 83.64 326.972 69.24 326.972 48.72C326.972 29.1 314.912 13.8 289.892 13.8H268.472Z" fill="black"/>
<path d="M296.453 138.099H278.093C260.813 138.099 245.153 152.139 245.153 152.139L248.753 136.839H358.373L361.973 152.139C361.973 152.139 346.493 138.099 329.033 138.099H310.673V249.519C310.673 259.599 311.753 259.599 316.973 261.579V262.299H290.333V261.579C295.373 259.599 296.453 259.599 296.453 249.519V138.099Z" fill="black"/>
<path d="M377.329 168.72C365.629 152.34 361.669 151.62 361.129 151.62H360.949V150.54H393.709V151.62C391.549 152.34 388.129 154.32 388.129 157.56C388.129 158.82 388.489 160.08 389.569 161.7C389.569 161.7 408.289 189.6 425.749 215.7L463.909 160.62C465.349 158.64 465.889 157.02 465.889 155.76C465.889 152.88 462.829 151.8 461.209 151.62V150.54H480.289V151.62C480.289 151.62 470.749 153.42 464.629 162.06C456.709 173.22 430.969 210.48 426.469 216.78V263.22C426.469 273.3 427.549 273.3 432.589 275.28V276H405.949V275.28C411.169 273.3 412.249 273.3 412.249 263.22V220.56C397.849 198.96 382.369 176.1 377.329 168.72Z" fill="black"/>
<path d="M213.183 349.386H209.583C163.263 349.386 125.823 311.946 125.823 265.626C125.823 219.546 163.263 182.106 209.583 182.106C255.663 182.106 293.343 219.546 293.343 265.626C293.343 307.386 262.623 341.946 222.783 348.426C259.983 352.026 271.023 370.026 295.503 370.026C309.663 370.026 314.223 361.386 314.223 361.386L314.703 361.626C314.703 361.626 310.383 379.626 288.543 379.626C258.783 379.626 248.703 351.306 213.183 349.386ZM206.943 183.546C170.943 183.546 144.783 219.786 144.783 262.506C144.783 310.266 177.183 347.706 211.983 347.706C247.743 347.706 274.383 311.466 274.383 269.226C274.383 220.746 241.743 183.546 206.943 183.546Z" fill="black"/>
<path d="M411.359 274.54V275.26C406.319 277.24 401.279 277.24 401.279 287.32V360.04C401.279 387.76 380.579 400 360.599 400C341.339 400 314.159 392.08 314.159 358.78V287.32C314.159 277.24 312.899 277.24 307.859 275.26V274.54H334.499V275.26C329.459 277.24 328.379 277.24 328.379 287.32V359.32C328.379 392.08 347.459 398.74 360.599 398.74C380.939 398.74 400.019 385.96 400.019 360.04V287.32C400.019 277.24 394.979 277.24 389.939 275.26V274.54H411.359Z" fill="black"/>
<path d="M522.183 380.92L515.883 400H430.923V399.28C435.963 397.3 437.043 397.3 437.043 387.22V287.32C437.043 277.24 435.963 277.24 430.923 275.26V274.54H515.883L519.483 289.84C519.483 289.84 504.003 275.62 486.723 275.62H451.263V336.64H488.883C498.963 336.64 498.963 331.6 500.943 326.56H501.663V347.98H500.943C498.963 342.94 498.963 337.9 488.883 337.9H451.263V398.74H486.003C506.343 398.74 522.183 380.92 522.183 380.92Z" fill="black"/>
<path d="M219.484 252.04V253H183.964V252.04C190.924 249.4 192.364 249.4 192.364 235.96V102.76C192.364 89.32 190.924 89.32 183.964 86.68V85.72H219.484V86.68C212.764 89.32 211.324 89.32 211.324 102.76V235.96C211.324 249.4 212.764 249.4 219.484 252.04Z" fill="black"/>
</svg>
